<?xml version="1.0" encoding="utf-8"?>
<!-- Generator: Adobe Illustrator 26.0.3, SVG Export Plug-In . SVG Version: 6.00 Build 0)  -->
<svg version="1.1" id="Camada_1" xmlns="http://www.w3.org/2000/svg" xmlns:xlink="http://www.w3.org/1999/xlink" x="0px" y="0px"
	 viewBox="0 0 196 1280" style="enable-background:new 0 0 196 1280;" xml:space="preserve">
<style type="text/css">
	.st0{fill:#FFFFFF;}
</style>
<g transform="translate(0.000000,1280.000000) scale(0.100000,-0.100000)">
	<path class="st0" d="M921,12617c-311-842-503-1756-591-2812c-20-249-40-584-40-692v-63h705h705l-4,38c-3,20-8,116-11,212
		c-28,865-186,1889-415,2687c-85,294-262,803-279,803C988,12790,956,12712,921,12617z"/>
	<path class="st0" d="M274,8983c17-115,19-153,7-153c-8,0-11-81-11-295v-295l-135-451L0,7339V3824V310h110h111l-3-77l-3-78l-107-3
		L0,149V75V0h980h980v75v74l-107,3l-108,3l-3,78l-3,77h111h110v3519v3518l-135,449l-135,448l-1,393l-1,393H978H267L274,8983z"/>
</g>
</svg>
