<svg width="24" height="24" viewBox="0 0 24 24" fill="none" xmlns="http://www.w3.org/2000/svg">
<path d="M13 4.79999C9.00002 4.79999 9.00002 19.2 13 19.2C17 19.2 22 16.5 22 12C22 7.49999 17 4.79999 13 4.79999ZM13.1 17.2C12.7 16.8 12 15 12 12C12 8.99999 12.7 7.19999 13.1 6.79999C16 6.89999 20 8.69999 20 12C20 15.3 15.9 17.1 13.1 17.2ZM8.00002 10.5C8.00002 11 7.90002 11.5 7.90002 12V12.6L2.40002 14L1.90002 12.1L8.00002 10.5ZM2.00002 6.99999L9.40002 5.09999C9.20002 5.39999 9.00002 5.79999 8.90002 6.29999C8.80002 6.59999 8.70002 6.99999 8.60002 7.39999L2.50002 8.89999L2.00002 6.99999ZM8.20002 15.5C8.30002 16.2 8.50002 16.9 8.70002 17.4L2.40002 19L1.90002 17.1L8.20002 15.5Z" fill="white"/>
</svg>
