<svg width="17" height="14" viewBox="0 0 17 14" fill="none" xmlns="http://www.w3.org/2000/svg">
<g clip-path="url(#clip0_2_72)">
<path d="M3.80501 6.03769L3.4751 7.30562C3.39515 7.61324 3.37868 7.93152 3.41108 8.24597L2.47608 9.03839C2.30157 9.18632 2.04285 9.02663 2.08774 8.79859L2.49787 6.70187C2.52602 6.55804 2.42721 6.42078 2.28537 6.40683L0.217208 6.20039C-0.00777597 6.17796 -0.0810885 5.87691 0.10724 5.74812L1.83779 4.56414C1.95626 4.48292 1.98069 4.31394 1.89038 4.20074L0.569959 2.5489C0.426255 2.36925 0.58138 2.1032 0.803177 2.14914L2.83999 2.57132C2.97971 2.60031 3.11305 2.49859 3.12687 2.35257L3.32741 0.223589C3.34919 -0.00828575 3.64165 -0.0834811 3.76702 0.110386L4.91718 1.89156C4.99607 2.01351 5.16023 2.03867 5.27019 1.9457L6.87457 0.586441C7.04909 0.438511 7.30754 0.598199 7.26291 0.826245L6.96196 2.36187C6.88998 2.44527 6.81773 2.52839 6.75185 2.6189L5.89787 3.79386L5.61338 4.18542C4.74399 4.42496 4.04141 5.1296 3.80501 6.03769ZM16.942 9.66101L16.6121 10.9287C16.529 11.248 16.363 11.5196 16.1459 11.7315C16.0737 11.8019 15.9959 11.8659 15.9133 11.9229L15.5417 13.351C15.5114 13.4678 15.4593 13.5725 15.3916 13.6622C15.1878 13.9313 14.8407 14.0636 14.5007 13.9698L13.6796 13.7434C13.2262 13.6185 12.9571 13.1386 13.0785 12.6718L13.2984 11.8266L6.73007 10.0148L6.51013 10.86C6.38874 11.3268 5.92257 11.6038 5.46915 11.4788L4.6481 11.2524C4.3081 11.1586 4.07169 10.8652 4.02601 10.5275C4.01087 10.4149 4.01671 10.2973 4.04699 10.1808L4.4186 8.75265C4.37464 8.66072 4.3383 8.56513 4.30996 8.46691C4.22496 8.17187 4.21301 7.85113 4.29615 7.53175L4.62605 6.26382C4.7671 5.72242 5.1403 5.31144 5.60594 5.10964C5.76252 5.04173 5.92805 4.99823 6.09709 4.98058L6.57866 4.31804L7.43265 3.14308C7.52429 3.01703 7.62363 2.89972 7.73015 2.79199C7.94265 2.57625 8.18251 2.39714 8.44043 2.25851C8.56952 2.18906 8.70313 2.12972 8.8402 2.08105C9.11459 1.98316 9.40305 1.9271 9.69657 1.91589C9.99009 1.90468 10.2892 1.93832 10.5846 2.0198L13.8432 2.91859C14.1386 3.00007 14.4138 3.12476 14.6627 3.28582C15.0341 3.52589 15.3489 3.84815 15.5842 4.22917C15.8184 4.60871 15.973 5.04511 16.0272 5.51406L16.1962 6.97121L16.2915 7.79288C16.5673 7.99789 16.7776 8.28279 16.8955 8.61128C17.0122 8.93613 17.0361 9.30007 16.942 9.66101ZM6.78877 6.40765C6.29604 6.27175 5.88007 6.51812 5.74832 7.02371C5.61657 7.52929 5.85749 7.95667 6.34996 8.09257C6.84269 8.22847 7.55962 8.51667 7.6911 8.01109C7.82285 7.5055 7.28124 6.54355 6.78877 6.40765ZM14.5081 7.17792L14.3392 5.72078C14.3238 5.58761 14.289 5.46019 14.2377 5.34179C14.0836 4.9866 13.7808 4.71261 13.4031 4.60843L10.1444 3.70964C9.89827 3.64177 9.63801 3.65136 9.39721 3.73719C9.15642 3.82302 8.94612 3.98114 8.79344 4.19117L7.93946 5.36613L12.5082 6.62613L14.5081 7.17792ZM14.9992 8.67226C14.5065 8.53636 13.5702 9.09089 13.4387 9.59621C13.3072 10.1018 14.068 10.2213 14.5607 10.3572C15.0534 10.4931 15.4694 10.2467 15.6012 9.74113C15.7326 9.23581 15.492 8.80816 14.9992 8.67226Z" fill="white"/>
</g>
<defs>
<clipPath id="clip0_2_72">
<rect width="17" height="14" fill="white"/>
</clipPath>
</defs>
</svg>
