<svg width="19" height="19" viewBox="0 0 19 19" fill="none" xmlns="http://www.w3.org/2000/svg">
<path d="M2.3017 1.75861H4.60342C4.81825 1.75861 5.01006 1.843 5.14816 1.98111L6.74402 3.58464L7.35782 2.97852C7.67239 2.6793 8.05601 2.52585 8.43963 2.52585H13.0431C13.4267 2.52585 13.8103 2.6793 14.1249 2.97852L14.8921 3.74576C15.1914 4.06033 15.3448 4.44395 15.3448 4.82757V14.8017C15.3448 15.2087 15.1831 15.599 14.8954 15.8868C14.6076 16.1745 14.2173 16.3362 13.8103 16.3362H6.1379C5.73093 16.3362 5.34063 16.1745 5.05286 15.8868C4.76509 15.599 4.60342 15.2087 4.60342 14.8017V6.36205C4.60342 5.97843 4.75687 5.59481 5.05609 5.28024L5.66221 4.66645L4.28885 3.29309H2.3017V1.75861ZM8.43963 4.06033V5.59481H13.0431V4.06033H8.43963ZM8.7542 8.66378L7.21971 7.12929H6.1379V8.21111L7.67239 9.74559V12.1854L6.1379 13.7199V14.8017H7.21971L8.7542 13.2672H11.194L12.7285 14.8017H13.8103V13.7199L12.2758 12.1854V9.74559L13.8103 8.21111V7.12929H12.7285L11.194 8.66378H8.7542ZM9.20687 10.1983H10.7414V11.7327H9.20687V10.1983Z" fill="white"/>
</svg>
