<svg width="22" height="22" viewBox="0 0 22 22" fill="none" xmlns="http://www.w3.org/2000/svg">
<path d="M5.01508 3.13497C4.97622 3.78548 5.07165 4.43702 5.29542 5.04906C5.5192 5.6611 5.86654 6.22053 6.31583 6.69256C5.44258 6.94293 4.66075 7.44136 4.06522 8.12736C3.46969 8.81336 3.08604 9.65746 2.96083 10.5572C2.6589 12.7165 3.10186 14.9141 4.21666 16.7878L4.5375 17.3286C4.54966 17.3485 4.56281 17.3678 4.57691 17.3864L5.87491 19.1336C6.14984 19.5039 6.50217 19.8098 6.90738 20.03C7.31259 20.2503 7.76093 20.3796 8.2212 20.4089C8.68146 20.4382 9.14259 20.3668 9.57247 20.1998C10.0023 20.0327 10.3906 19.774 10.7103 19.4416C10.7477 19.4027 10.7925 19.3718 10.8422 19.3506C10.8918 19.3295 10.9452 19.3186 10.9991 19.3186C11.053 19.3186 11.1064 19.3295 11.156 19.3506C11.2056 19.3718 11.2505 19.4027 11.2878 19.4416C11.6075 19.774 11.9958 20.0327 12.4257 20.1998C12.8556 20.3668 13.3167 20.4382 13.777 20.4089C14.2372 20.3796 14.6856 20.2503 15.0908 20.03C15.496 19.8098 15.8483 19.5039 16.1232 19.1336L17.4212 17.3855C17.4351 17.3669 17.4479 17.3476 17.4597 17.3277L17.7815 16.7869C18.8968 14.9141 19.3408 12.7171 19.0401 10.5581C18.9513 9.92199 18.7329 9.31082 18.3984 8.76248C18.0639 8.21414 17.6205 7.74029 17.0954 7.37028C16.5704 7.00026 15.975 6.74196 15.3461 6.61135C14.7172 6.48074 14.0682 6.48061 13.4392 6.61097L11.6967 6.97214H11.6939C11.7214 6.25714 11.8332 5.48714 12.0523 4.82897C12.3182 4.03331 12.6867 3.55481 13.0973 3.38431C13.2657 3.31405 13.3992 3.17978 13.4686 3.01106C13.538 2.84233 13.5375 2.65296 13.4672 2.4846C13.3969 2.31624 13.2627 2.18269 13.094 2.11333C12.9252 2.04396 12.7359 2.04446 12.5675 2.11472C11.6032 2.51714 11.055 3.47139 10.7479 4.39356L10.7057 4.52372C10.4857 4.09839 10.1979 3.69872 9.84133 3.34122C9.36593 2.86528 8.79484 2.49577 8.16589 2.25714C7.53693 2.01852 6.86446 1.91623 6.193 1.95706C5.88657 1.97469 5.59727 2.10419 5.37998 2.32097C5.16269 2.53776 5.03252 2.82675 5.01416 3.13314L5.01508 3.13497ZM7.69725 10.2987C7.37916 10.362 7.08766 10.5856 6.90525 11.0119C6.71916 11.4464 6.65316 12.0908 6.85391 12.8947C6.89518 13.0705 6.86561 13.2555 6.77159 13.4097C6.67757 13.5639 6.52666 13.6749 6.35146 13.7188C6.17626 13.7626 5.99085 13.7357 5.83529 13.644C5.67974 13.5522 5.56655 13.4029 5.52016 13.2284C5.2635 12.1999 5.31208 11.2392 5.64116 10.4701C5.97391 9.69372 6.59908 9.11531 7.42775 8.95031C7.51755 8.92911 7.61071 8.9262 7.70166 8.94177C7.79262 8.95733 7.8795 8.99105 7.95715 9.04091C8.0348 9.09076 8.10161 9.15574 8.15362 9.23196C8.20562 9.30819 8.24175 9.3941 8.25984 9.48459C8.27794 9.57507 8.27764 9.66827 8.25895 9.75863C8.24027 9.849 8.20358 9.93467 8.15108 10.0106C8.09858 10.0864 8.03135 10.151 7.95338 10.2003C7.87541 10.2497 7.7883 10.2828 7.69725 10.2978V10.2987Z" fill="white"/>
</svg>
