<svg width="39" height="39" viewBox="0 0 39 39" fill="none" xmlns="http://www.w3.org/2000/svg">
<path d="M18.6396 5.23089C18.7528 5.11739 18.8873 5.02734 19.0353 4.9659C19.1834 4.90446 19.3421 4.87283 19.5024 4.87283C19.6627 4.87283 19.8215 4.90446 19.9695 4.9659C20.1176 5.02734 20.2521 5.11739 20.3653 5.23089C23.3878 8.26314 26.7369 9.75001 30.4688 9.75001C30.792 9.75001 31.102 9.87842 31.3305 10.107C31.5591 10.3355 31.6875 10.6455 31.6875 10.9688V18.2837C31.6875 26.13 27.6876 31.4633 19.8851 34.0616C19.6352 34.1451 19.3648 34.1451 19.1149 34.0616C11.3149 31.4633 7.3125 26.13 7.3125 18.2837V10.9688C7.3125 10.6455 7.4409 10.3355 7.66946 10.107C7.89802 9.87842 8.20802 9.75001 8.53125 9.75001C12.2606 9.75001 15.6097 8.2607 18.6396 5.23089Z" fill="white"/>
</svg>
