<svg width="20" height="20" viewBox="0 0 20 20" fill="none" xmlns="http://www.w3.org/2000/svg">
<path d="M10 1.66669C5.55833 5.45835 3.33333 8.73335 3.33333 11.5C3.33333 15.65 6.5 18.3334 10 18.3334C13.5 18.3334 16.6667 15.65 16.6667 11.5C16.6667 8.73335 14.4417 5.45835 10 1.66669ZM6.525 11.6667C6.83333 11.6667 7.08333 11.8834 7.14167 12.1834C7.48333 14.0334 9.04167 14.6667 10.175 14.575C10.5333 14.5584 10.8333 14.8417 10.8333 15.2C10.8333 15.5334 10.5667 15.8084 10.2333 15.825C8.45833 15.9334 6.38333 14.9167 5.90833 12.3917C5.89385 12.3023 5.89895 12.2109 5.92327 12.1237C5.94759 12.0366 5.99056 11.9557 6.0492 11.8867C6.10785 11.8178 6.18076 11.7624 6.26292 11.7244C6.34507 11.6864 6.43449 11.6667 6.525 11.6667V11.6667Z" fill="white"/>
</svg>
