<svg width="219" height="286" viewBox="0 0 219 286" fill="none" xmlns="http://www.w3.org/2000/svg">
<g filter="url(#filter0_d_2_43)">
<path d="M210.256 94.6479C210.256 42.5845 170.207 0 103.463 0C36.7181 0 0 42.5845 0 94.6479C0 146.711 14.6913 140.03 14.6913 169.412C14.6913 180.431 4.00487 175.088 4.00487 198.795C4.00487 224.816 40.3808 221.154 51.0672 231.82C61.7334 242.506 60.7272 262.209 60.7272 262.209C60.7272 262.209 62.7397 270.208 66.4125 267.864C66.4125 267.864 68.747 273.539 71.4236 270.198C71.4236 270.198 74.0902 275.863 76.7568 271.205C76.7568 271.205 79.4334 277.544 83.7703 272.875C83.7703 272.875 88.0972 279.214 93.1284 274.213C93.1284 274.213 98.7936 279.546 105.133 275.552C111.472 279.546 117.148 274.213 117.148 274.213C122.149 279.214 126.506 272.875 126.506 272.875C130.833 277.554 133.489 271.205 133.489 271.205C136.186 275.874 138.822 270.198 138.822 270.198C141.509 273.539 143.854 267.864 143.854 267.864C147.516 270.198 149.519 262.199 149.519 262.199C149.519 262.199 148.512 242.516 159.199 231.83C169.885 221.164 206.251 224.826 206.251 198.795C206.251 175.098 195.585 180.431 195.585 169.412C195.585 140.03 210.276 146.711 210.276 94.6479H210.256ZM53.1401 193.784C35.1986 196.651 27.0782 191.62 25.116 178.77C20.0042 145.282 50.8257 139.869 66.171 141.71C73.5166 142.596 86.1954 150.384 86.1954 160.074C86.1954 186.106 69.8338 191.117 53.1401 193.784ZM114.803 237.153C111.482 237.153 106.149 232.826 105.807 224.816C105.475 232.826 99.4678 237.163 96.1472 237.163C92.7964 237.163 87.7953 233.842 87.4532 225.823C87.1211 217.813 97.7974 185.442 105.485 185.442C113.153 185.442 123.839 217.813 123.497 225.823C123.155 233.832 118.164 237.163 114.813 237.163L114.803 237.153ZM184.234 178.77C182.282 191.62 174.142 196.651 156.2 193.784C139.517 191.107 123.165 186.106 123.165 160.074C123.165 150.384 135.844 142.596 143.189 141.71C158.535 139.869 189.376 145.282 184.244 178.77H184.234Z" fill="#DB5F5F"/>
</g>
<defs>
<filter id="filter0_d_2_43" x="0" y="0" width="218.276" height="285.036" filterUnits="userSpaceOnUse" color-interpolation-filters="sRGB">
<feFlood flood-opacity="0" result="BackgroundImageFix"/>
<feColorMatrix in="SourceAlpha" type="matrix" values="0 0 0 0 0 0 0 0 0 0 0 0 0 0 0 0 0 0 127 0" result="hardAlpha"/>
<feOffset dx="4" dy="4"/>
<feGaussianBlur stdDeviation="2"/>
<feComposite in2="hardAlpha" operator="out"/>
<feColorMatrix type="matrix" values="0 0 0 0 0.858824 0 0 0 0 0.372549 0 0 0 0 0.372549 0 0 0 0.25 0"/>
<feBlend mode="normal" in2="BackgroundImageFix" result="effect1_dropShadow_2_43"/>
<feBlend mode="normal" in="SourceGraphic" in2="effect1_dropShadow_2_43" result="shape"/>
</filter>
</defs>
</svg>
